PathFileType	4	(X/Y/Z)	SUBJ59_3_walk_RCNL2025.trc
DataRate	CameraRate	NumFrames	NumMarkers	Units	OrigDataRate	OrigDataStartFrame	OrigNumFrames
100	100	11	25	mm	100	230	306
Frame#	Time	R_Shoulder			L_Shoulder			C7			J_Notch			R_Elbow			L_Elbow			R_Wrist			L_Wrist			R_Asis			L_Asis			Sacral			Thoracic			Sternum			R_Thigh_Lateral			R_Knee_Lateral			R_Shank_Lateral			R_Ankle_Lateral			R_Heel			R_Toe			L_Thigh_Lateral			L_Knee_Lateral			L_Shank_Lateral			L_Ankle_Lateral			L_Heel			L_Toe		
		X1	Y1	Z1	X2	Y2	Z2	X3	Y3	Z3	X4	Y4	Z4	X5	Y5	Z5	X6	Y6	Z6	X7	Y7	Z7	X8	Y8	Z8	X9	Y9	Z9	X10	Y10	Z10	X11	Y11	Z11	X12	Y12	Z12	X13	Y13	Z13	X14	Y14	Z14	X15	Y15	Z15	X16	Y16	Z16	X17	Y17	Z17	X18	Y18	Z18	X19	Y19	Z19	X20	Y20	Z20	X21	Y21	Z21	X22	Y22	Z22	X23	Y23	Z23	X24	Y24	Z24	X25	Y25	Z25
230	2.29000000	1369.088623	1464.432373	55.257462	1362.964722	1473.917236	-342.238525	1273.953247	1556.764282	-147.464462	1433.243896	1454.966797	-147.793839	1315.340210	1157.193970	164.528778	1353.531616	1134.373291	-440.688263	1376.021790	883.389801	167.619484	1413.328369	874.704834	-418.945892	1408.983643	992.779358	-13.572515	1420.884277	992.534424	-240.413025	1203.873535	1023.670837	-134.259033	1202.794922	1341.159668	-158.149017	1482.135986	1259.310303	-142.886368	1397.536011	610.795532	102.161285	1405.727173	514.335571	53.878056	1293.641968	360.363556	125.758781	1129.416504	181.911209	6.479156	1093.629883	197.629593	-40.473125	1239.113403	71.959625	-31.617117	1333.836304	603.208618	-310.590546	1342.287476	495.802246	-248.836349	1327.739746	296.855164	-304.630707	1305.510132	72.579422	-216.443542	1259.722656	51.477505	-163.531876	1466.189209	33.825794	-173.429688
231	2.30000000	1379.286133	1464.048950	55.212650	1373.656006	1475.186890	-342.349884	1284.544434	1556.996094	-147.523361	1443.754883	1455.138916	-147.948166	1322.393433	1156.879639	163.703491	1370.244385	1136.002197	-441.454773	1379.321899	882.342590	167.495049	1435.181335	877.676666	-418.673386	1420.335693	993.470764	-14.932463	1430.864380	992.725769	-241.841461	1214.153076	1023.990601	-133.756409	1213.398560	1341.348145	-158.672668	1492.499512	1259.420776	-144.070602	1415.314697	612.739136	101.434074	1425.445190	516.604858	52.904377	1317.364990	359.719727	124.724365	1160.221924	174.705490	5.566851	1123.922852	188.622635	-41.865181	1275.149048	69.689819	-31.311678	1338.616211	603.277832	-310.586365	1345.367554	495.757172	-248.805237	1329.023926	296.991974	-304.651520	1305.560425	72.741714	-216.149277	1259.823975	51.699406	-163.313797	1466.325317	33.724243	-173.424332
232	2.31000000	1389.471436	1463.477051	55.201973	1384.354736	1476.325806	-342.399628	1295.094238	1557.052856	-147.527435	1454.239380	1455.172363	-148.072876	1329.431030	1156.400269	162.919205	1386.651123	1137.585449	-442.234924	1382.651978	881.183044	167.326996	1456.944763	880.789246	-418.310974	1431.656616	993.939453	-16.220873	1440.865234	992.732178	-243.137054	1223.751465	1024.281982	-133.833801	1223.987061	1341.354370	-159.148087	1502.894287	1259.413086	-145.208481	1432.699829	614.525269	100.554306	1444.668579	518.731506	51.766430	1341.270874	358.571228	123.591927	1191.884277	166.873795	4.676690	1155.090820	178.791931	-43.317871	1312.015381	67.218399	-31.024639	1343.587524	603.310303	-310.591370	1348.563965	495.680847	-248.768265	1330.430786	297.104645	-304.678680	1305.632202	72.910072	-215.859314	1259.942627	51.951340	-163.087128	1466.436646	33.618740	-173.430801
233	2.32000000	1399.648926	1462.714722	55.240761	1395.089111	1477.299072	-342.372772	1305.614624	1556.928711	-147.476562	1464.711914	1455.057495	-148.161102	1336.461060	1155.747314	162.176193	1402.737427	1139.081665	-443.048950	1386.018066	879.895782	167.111145	1478.585876	884.015717	-417.865005	1442.941284	994.171814	-17.416359	1450.897583	992.529541	-244.283218	1233.013428	1024.469116	-134.272949	1234.567383	1341.179932	-159.576019	1513.330444	1259.279053	-146.273315	1449.670898	616.127747	99.523865	1463.361816	520.656494	50.476807	1365.365356	356.903900	122.379227	1224.397583	158.487305	3.797779	1187.177246	168.269058	-44.790455	1349.613037	64.614128	-30.752777	1348.805908	603.287292	-310.614807	1351.940918	495.567169	-248.728912	1332.013550	297.177795	-304.709747	1305.731812	73.084091	-215.578720	1260.086426	52.241196	-162.857147	1466.529297	33.518883	-173.452576
234	2.33000000	1409.823608	1461.764893	55.343685	1405.879883	1478.077637	-342.258026	1316.120483	1556.620972	-147.368607	1475.185669	1454.783691	-148.204468	1343.496460	1154.919556	161.473618	1418.504395	1140.456543	-443.908844	1389.432861	878.473816	166.847977	1500.073547	887.330536	-417.341537	1454.190308	994.159851	-18.500338	1460.976685	992.105896	-245.268921	1242.293335	1024.472046	-134.798111	1245.146118	1340.830322	-159.953812	1523.812622	1259.006226	-147.243927	1466.226440	617.522644	98.351959	1481.483765	522.316101	49.045544	1389.617920	354.721741	121.101768	1257.743408	149.634048	2.925379	1220.229980	157.210693	-46.219109	1387.856934	61.964195	-30.491636	1354.321533	603.188232	-310.658722	1355.559204	495.408905	-248.686661	1333.818970	297.202271	-304.733673	1305.867310	73.264236	-215.310577	1260.261475	52.574520	-162.627670	1466.615601	33.437805	-173.493057
235	2.34000000	1420.000244	1460.633789	55.523777	1416.738770	1478.639771	-342.049194	1326.628540	1556.130859	-147.200073	1485.672974	1454.340820	-148.192307	1350.556030	1153.921509	160.810791	1433.964722	1141.684082	-444.817963	1392.924011	876.921143	166.544769	1521.378113	890.709656	-416.746262	1465.410645	993.900879	-19.454826	1471.120483	991.461609	-246.089828	1251.798950	1024.245239	-135.232483	1255.728394	1340.314453	-160.276031	1534.340576	1258.579346	-148.105621	1482.374146	618.682556	97.054337	1498.993286	523.649475	47.484039	1413.965698	352.048218	119.768562	1291.903198	140.434479	2.065492	1254.284546	145.787170	-47.547329	1426.682251	59.383442	-30.231844	1360.168945	602.994263	-310.720215	1359.468384	495.197784	-248.639755	1335.876465	297.176239	-304.736816	1306.046997	73.451721	-215.057709	1260.470581	52.953331	-162.400986	1466.709229	33.384506	-173.549988
236	2.35000000	1430.183716	1459.328613	55.791027	1427.668213	1478.971069	-341.745117	1337.157104	1555.465088	-146.968079	1496.185059	1453.720093	-148.112518	1357.661621	1152.760864	160.186447	1449.139404	1142.746948	-445.772491	1396.529663	875.247986	166.212410	1542.470337	894.130188	-416.084091	1476.614868	993.398010	-20.262751	1481.346924	990.607910	-246.748535	1261.606079	1023.773438	-135.504868	1266.317383	1339.642822	-160.534988	1544.910645	1257.982788	-148.849319	1498.119873	619.570740	95.650597	1515.850464	524.605042	45.809700	1438.317261	348.930481	118.385574	1326.858887	131.038269	1.229161	1289.344971	134.179779	-48.754776	1466.031860	57.007885	-29.961540	1366.359253	602.692444	-310.795441	1363.696411	494.927277	-248.587433	1338.192383	297.104034	-304.708008	1306.277466	73.647591	-214.823151	1260.710938	53.375046	-162.175812	1466.819214	33.356529	-173.612747
237	2.36000000	1440.378784	1457.856201	56.151424	1438.665405	1479.066284	-341.348419	1347.723755	1554.632812	-146.671829	1506.731812	1452.916016	-147.953995	1364.835693	1151.444824	159.598755	1464.054565	1143.635498	-446.762939	1400.285889	873.464050	165.860382	1563.321777	897.570740	-415.358765	1487.820557	992.660278	-20.910803	1491.670410	989.564331	-247.253433	1271.718872	1023.055664	-135.606201	1276.916260	1338.822632	-160.721741	1555.516846	1257.202637	-149.468933	1513.463257	620.142090	94.164223	1532.016846	525.141663	44.046780	1462.557739	345.443176	116.962860	1362.580811	121.617310	0.428755	1325.371826	122.583397	-49.851387	1505.837402	54.986347	-29.667582	1372.877075	602.278198	-310.882782	1368.243408	494.596375	-248.530716	1340.749878	296.994812	-304.640778	1306.560181	73.852814	-214.609650	1260.972290	53.831947	-161.944000	1466.947754	33.343605	-173.669586
238	2.37000000	1450.589111	1456.222778	56.607483	1449.724731	1478.927490	-340.864014	1358.342407	1553.641357	-146.311539	1517.322266	1451.926758	-147.708145	1372.099731	1149.979614	159.045700	1478.738647	1144.347534	-447.775269	1404.220154	871.575378	165.494797	1583.904785	901.012177	-414.572678	1499.048706	991.702698	-21.393511	1502.098267	988.355469	-247.618118	1282.107178	1022.097107	-135.557678	1287.530640	1337.854492	-160.828079	1566.151978	1256.229248	-149.959427	1528.395752	620.350159	92.624451	1547.456055	525.227905	42.223671	1486.555420	341.684326	115.518227	1399.016113	112.362450	-0.322753	1362.283081	111.207901	-50.855618	1546.005615	53.475391	-29.334879	1379.680542	601.756287	-310.982788	1373.083130	494.212280	-248.472763	1343.511841	296.859985	-304.532867	1306.890503	74.069389	-214.418579	1261.240112	54.313683	-161.693558	1467.092529	33.335663	-173.715149
239	2.38000000	1460.818481	1454.434814	57.159138	1460.841431	1478.563599	-340.298157	1369.021606	1552.496948	-145.885468	1527.963501	1450.754517	-147.368454	1379.473389	1148.370239	158.525452	1493.221924	1144.887329	-448.791595	1408.351990	869.585938	165.119370	1604.193176	904.436920	-413.726929	1510.321533	990.545471	-21.716721	1512.627686	987.007385	-247.863388	1292.729492	1020.907654	-135.389618	1298.166870	1336.736694	-160.848404	1576.810913	1255.058960	-150.316513	1542.892944	620.148804	91.064522	1562.139282	524.839966	40.370270	1510.170776	337.761810	114.074768	1436.080322	103.479149	-1.013632	1399.962280	100.274796	-51.783810	1586.409058	52.634708	-28.948614	1386.706787	601.139954	-311.096283	1378.171753	493.789459	-248.418915	1346.428955	296.711548	-304.385437	1307.257935	74.301155	-214.247879	1261.502075	54.813705	-161.417862	1467.247681	33.325310	-173.750229
240	2.39000000	1471.072144	1452.501709	57.804207	1472.010376	1477.987915	-339.657227	1379.765503	1551.207642	-145.389038	1538.659912	1449.405273	-146.929733	1386.975708	1146.621338	158.036911	1507.533325	1145.265381	-449.790924	1412.697388	867.498932	164.737175	1624.162170	907.827667	-412.821625	1521.660522	989.212952	-21.898172	1523.243286	985.545532	-248.018723	1303.544189	1019.501526	-135.128891	1308.828857	1335.472290	-160.779984	1587.490723	1253.695312	-150.537125	1556.901123	619.487427	89.516212	1576.049805	523.961609	38.515228	1533.266113	333.778198	112.656212	1473.645020	95.180397	-1.633930	1438.255859	90.007263	-52.645672	1626.878784	52.621479	-28.499502	1393.881226	600.447815	-311.222717	1383.460449	493.345795	-248.375183	1349.448486	296.561188	-304.203125	1307.648560	74.554031	-214.090805	1261.752808	55.335751	-161.122467	1467.405762	33.307106	-173.778229
